<?xml version="1.0" encoding="UTF-8" standalone="no"?>
<svg
   xmlns:dc="http://purl.org/dc/elements/1.1/"
   xmlns:cc="http://creativecommons.org/ns#"
   xmlns:rdf="http://www.w3.org/1999/02/22-rdf-syntax-ns#"
   xmlns:svg="http://www.w3.org/2000/svg"
   xmlns="http://www.w3.org/2000/svg"
   viewBox="0 0 608 265.33334"
   height="265.33334"
   width="608"
   xml:space="preserve"
   id="svg2"
   version="1.1"><metadata
     id="metadata8"><rdf:RDF><cc:Work
         rdf:about=""><dc:format>image/svg+xml</dc:format><dc:type
           rdf:resource="http://purl.org/dc/dcmitype/StillImage" /></cc:Work></rdf:RDF></metadata><defs
     id="defs6" /><g
     transform="matrix(1.3333333,0,0,-1.3333333,0,265.33333)"
     id="g10"><g
       transform="scale(0.1)"
       id="g12"><path
         id="path14"
         style="fill:#f47216;fill-opacity:1;fill-rule:evenodd;stroke:none"
         d="m 4498.98,1393.2 c -270.18,47.17 -619.96,249.8 -1005.66,271.77 349.23,32.18 743.25,-126.5 1005.66,-271.77" /><path
         id="path16"
         style="fill:#f47216;fill-opacity:1;fill-rule:evenodd;stroke:none"
         d="m 4553.4,1502.03 c -351.67,74.24 -826.36,260.79 -1304.54,298.85 440.94,15.27 975.92,-110.97 1304.54,-298.85" /><path
         id="path18"
         style="fill:#f47216;fill-opacity:1;fill-rule:evenodd;stroke:none"
         d="m 3520.66,1447.61 c 149.77,-28.63 62.39,-454.704 35.73,-79.8 -86.65,-86.31 -99.53,-246.13 -117.49,-409.369 -108.55,-84.425 -225.94,-31.894 -27.07,0 4.83,194.599 58.96,339.869 108.83,489.169" /><path
         id="path20"
         style="fill:#f47216;fill-opacity:1;fill-rule:evenodd;stroke:none"
         d="m 3411.84,1625.8 c 10.7,-57.88 -123.84,13.34 -81.49,-72.41 -111.49,2.38 -222.75,4.76 -299.13,-24.3 26.8,32.63 72.64,48.36 108.82,72.65 71.85,-19.29 210.42,-25.02 162.96,24.06 6.7,62.17 46.91,-33.12 108.84,0" /><path
         id="path22"
         style="fill:#f47216;fill-opacity:1;fill-rule:evenodd;stroke:none"
         d="m 2840.9,1067.01 c 43,-41.37 305.57,57.08 489.45,54.4 -129.46,-79.08 -323.58,-82.03 -457.05,-157.09 -102.66,33.243 -85.46,185.5 -86.53,320.31 60.32,21.19 105.88,57.11 190.03,54.42 -22.76,-58.69 -92.09,-19.17 -160.86,-80.92 0.27,-72.09 -9.76,-146.79 24.96,-191.12" /><path
         id="path24"
         style="fill:#f47216;fill-opacity:1;fill-rule:evenodd;stroke:none"
         d="m 2623.55,768.133 c -7.35,-78.36 68.34,35.39 135.9,0 -22.81,-58.68 -140.2,-23.035 -162.97,-81.488 -41.82,194.886 134.91,706.815 -126.57,766.055 -150.2,29.52 -296.99,-240.65 -387.85,-444.89 -28.94,-65.384 -49.53,-315.533 -83.58,-158.193 100.51,243.653 210.03,693.043 489.05,652.833 234.81,-33.78 184.21,-444.42 136.02,-734.317" /><path
         id="path26"
         style="fill:#f47216;fill-opacity:1;fill-rule:evenodd;stroke:none"
         d="m 2708.39,1961.16 c 121.18,21.18 249.3,-33.24 56.07,-24.4 -376.26,4.3 -686.99,57.9 -830.75,-190.03 373.14,-44.75 749.12,-86.85 1088.67,-163.23 -440.95,30.82 -1089.8,93.28 -1546.86,-54.41 51.99,95.95 458.19,90.32 658.73,135.88 -539.24,127.33 -1212.66,19.05 -1690.047,-81.47 48.309,53.88 164.395,43.41 200.57,108.82 C 413.137,1631.21 128.25,1521.94 71.9063,1393.2 30.6328,1282.13 148.18,1248.19 157.766,1148.74 84.6055,1100.23 65.9648,1080.4 186.313,985.523 -2.66797,962.992 -48.4375,1311.7 65.9648,1469.84 c 185.8672,256.79 682.1762,285.2 1123.1452,276.89 122.58,-2.4 336.98,-19.84 458.16,0 273.16,44.77 490.53,308.29 714.83,215.27 114.68,0 231.89,-0.84 346.29,-0.84" /><path
         id="path28"
         style="fill:#f47216;fill-opacity:1;fill-rule:evenodd;stroke:none"
         d="M 1808.19,916.363 C 1456.25,658.93 817.789,888.844 421.902,966.648 c 37.801,15.368 4.02,96.622 54.411,100.352 367.21,-22.05 977.787,-33.21 1331.877,-150.637 z m -54.42,0 c -161.9,59.696 -408.22,41.367 -597.99,75.321 -24.39,-73.582 -24.39,-77.071 0,-150.657 197.81,-18.824 466.38,-32.953 597.99,75.336" /><path
         id="path30"
         style="fill:#231f20;fill-opacity:1;fill-rule:nonzero;stroke:none"
         d="M 426.035,512.539 H 171.371 L 158.84,463.621 h 239.914 l -17.41,-67.965 H 141.43 L 128.766,346.223 H 387.352 L 367.324,268.031 H 10.1602 L 92.9766,591.324 H 446.215 Z m 80.582,78.785 h 98.574 L 556.078,399.586 c -5.601,-21.863 -4.394,-36.539 3.637,-43.949 8.012,-7.489 28.633,-11.192 61.91,-11.192 h 56.031 c 27.719,0 47.254,3.93 58.699,11.856 11.422,7.859 19.793,22.308 25.168,43.285 l 49.114,191.738 h 98.801 L 852.48,368.977 c -9.757,-38.094 -26.902,-65.075 -51.511,-81.008 -24.539,-15.934 -62,-23.867 -112.395,-23.867 H 578.289 c -59.219,0 -97.953,7.632 -116.293,22.828 -18.344,15.195 -22.457,42.543 -12.336,82.047 z m 704.433,-80.566 h -156.97 l -20.24,-79.008 h 156.98 c 13.19,0 23.23,3.039 30.07,9.191 6.84,6.153 12.35,17.27 16.47,33.352 3.27,12.75 2.83,22.016 -1.32,27.793 -4.16,5.785 -12.53,8.672 -24.99,8.672 z m 24.34,80.566 c 51.3,0 84.17,-7.636 98.81,-22.828 14.64,-15.195 16.8,-42.914 6.49,-83.16 -7.14,-27.867 -16.62,-48.691 -28.32,-62.254 -11.72,-13.641 -27.92,-22.754 -48.44,-27.352 16,-4.074 26.98,-11.261 32.88,-21.492 5.89,-10.3 6.77,-23.64 2.58,-40.019 l -16.96,-66.188 h -98.79 l 12.62,49.285 c 3.27,12.75 2.54,21.497 -2.25,26.239 -4.76,4.82 -16.01,7.187 -33.65,7.187 h -147.27 l -21.192,-82.711 h -99.019 l 82.816,323.293 z m 265.05,-327.222 c -37.73,0 -64.94,1.707 -81.63,5.113 -16.62,3.41 -29.36,9.191 -38.28,17.492 -10.01,9.266 -15.95,21.348 -17.6,36.32 -1.64,15.043 0.71,34.907 7.05,59.661 l 22.58,88.121 c 6.93,27.054 15.18,48.546 24.69,64.261 9.52,15.785 21.78,28.313 36.52,37.575 12.99,8.156 28.92,13.933 47.83,17.418 18.9,3.484 46.61,5.187 83.22,5.187 h 116.22 c 36.76,0 63.75,-1.703 81.09,-5.187 17.26,-3.485 30.23,-9.262 38.81,-17.418 9.68,-9.118 15.31,-21.567 16.82,-37.352 1.51,-15.785 -0.83,-35.945 -7.13,-60.555 l -23.09,-90.125 c -6.38,-24.902 -14.38,-45.136 -23.93,-60.699 -9.54,-15.562 -21.54,-27.941 -35.91,-37.207 -12.95,-8.301 -28.81,-14.082 -47.47,-17.492 -18.66,-3.406 -46.67,-5.113 -84.02,-5.113 z m 47.45,80.789 h 62.7 c 34.91,0 59.15,4.371 72.88,13.117 13.66,8.746 23.54,25.051 29.62,48.769 l 11.73,45.801 c 6.07,23.719 4.54,40.024 -4.63,48.77 -9.25,8.746 -31.25,13.117 -66.16,13.117 h -63.14 c -35.66,0 -60.14,-4.445 -73.44,-13.266 -13.31,-8.82 -23.16,-25.57 -29.5,-50.324 l -11.52,-44.988 c -5.97,-23.274 -4.21,-39.282 5.21,-47.953 9.41,-8.672 31.49,-13.043 66.25,-13.043 z m 717.54,-76.86 h -98.58 l 62.53,244.063 h -135.27 l 20.3,79.23 h 369.09 l -20.29,-79.23 h -135.26 z m 331.62,-3.929 c -37.73,0 -64.93,1.707 -81.62,5.113 -16.63,3.41 -29.37,9.191 -38.29,17.492 -10,9.266 -15.95,21.348 -17.6,36.32 -1.63,15.043 0.72,34.907 7.06,59.661 l 22.57,88.121 c 6.93,27.054 15.18,48.546 24.69,64.261 9.53,15.785 21.78,28.313 36.53,37.575 12.99,8.156 28.92,13.933 47.82,17.418 18.9,3.484 46.61,5.187 83.23,5.187 h 116.21 c 36.76,0 63.75,-1.703 81.09,-5.187 17.26,-3.485 30.23,-9.262 38.82,-17.418 9.67,-9.118 15.3,-21.567 16.82,-37.352 1.51,-15.785 -0.84,-35.945 -7.14,-60.555 l -23.09,-90.125 c -6.38,-24.902 -14.38,-45.136 -23.92,-60.699 -9.55,-15.562 -21.54,-27.941 -35.92,-37.207 -12.95,-8.301 -28.81,-14.082 -47.47,-17.492 -18.66,-3.406 -46.66,-5.113 -84.02,-5.113 z m 47.45,80.789 h 62.7 c 34.91,0 59.16,4.371 72.88,13.117 13.66,8.746 23.54,25.051 29.62,48.769 l 11.73,45.801 c 6.08,23.719 4.55,40.024 -4.63,48.77 -9.25,8.746 -31.25,13.117 -66.16,13.117 h -63.14 c -35.65,0 -60.14,-4.445 -73.44,-13.266 -13.3,-8.82 -23.15,-25.57 -29.49,-50.324 l -11.53,-44.988 c -5.96,-23.274 -4.21,-39.282 5.21,-47.953 9.41,-8.672 31.49,-13.043 66.25,-13.043 z m 371.45,246.433 h 98.58 l -49.12,-191.738 c -5.6,-21.863 -4.39,-36.539 3.64,-43.949 8.01,-7.489 28.63,-11.192 61.91,-11.192 h 56.03 c 27.72,0 47.25,3.93 58.7,11.856 11.42,7.859 19.79,22.308 25.17,43.285 l 49.11,191.738 h 98.8 l -56.96,-222.347 c -9.76,-38.094 -26.9,-65.075 -51.51,-81.008 -24.54,-15.934 -62,-23.867 -112.39,-23.867 h -110.29 c -59.22,0 -97.95,7.632 -116.29,22.828 -18.35,15.195 -22.45,42.543 -12.34,82.047 z m 704.44,-80.566 h -156.98 l -20.24,-79.008 h 156.98 c 13.19,0 23.23,3.039 30.07,9.191 6.84,6.153 12.35,17.27 16.48,33.352 3.26,12.75 2.82,22.016 -1.33,27.793 -4.15,5.785 -12.53,8.672 -24.98,8.672 z m 24.34,80.566 c 51.29,0 84.16,-7.636 98.81,-22.828 14.63,-15.195 16.8,-42.914 6.48,-83.16 -7.13,-27.867 -16.62,-48.691 -28.32,-62.254 -11.72,-13.641 -27.91,-22.754 -48.43,-27.352 16,-4.074 26.98,-11.261 32.88,-21.492 5.88,-10.3 6.76,-23.64 2.57,-40.019 l -16.95,-66.188 h -98.8 l 12.62,49.285 c 3.27,12.75 2.55,21.497 -2.24,26.239 -4.77,4.82 -16.02,7.187 -33.66,7.187 h -147.27 l -21.19,-82.711 h -99.02 l 82.82,323.293 h 259.7" /><path
         id="path32"
         style="fill:#55b0ab;fill-opacity:1;fill-rule:nonzero;stroke:none"
         d="m 852.668,125.008 c 4.457,15.297 3.891,25.613 -1.629,31.008 -5.516,5.394 -20.644,8.066 -45.434,8.066 h -42.746 c -21.406,0 -37.683,-3.203 -48.742,-9.668 -11.035,-6.402 -18.824,-16.894 -23.301,-31.484 L 677.805,80.5391 c -5.918,-19.2696 -5.828,-32.4922 0.312,-39.7266 6.137,-7.2305 20.86,-10.8477 44.278,-10.8477 h 43.402 c 22.945,0 39.605,3.0782 49.937,9.3086 10.371,6.1641 17.969,17.1914 22.844,33.0821 l 0.641,2.0742 h 27.449 l -1.492,-4.8594 C 858.023,46.2695 846.434,29.3672 830.402,18.875 814.355,8.32031 792.34,3.04297 764.293,3.04297 h -52.234 c -29.528,0 -49.684,5.8125 -60.426,17.37503 -10.735,11.5625 -12.449,29.3476 -5.094,53.3008 l 14.195,46.2462 c 7.391,24.074 19.989,41.922 37.766,53.484 17.84,11.563 41.559,17.371 71.203,17.371 h 43.402 c 31.129,0 51.907,-4.742 62.336,-14.23 10.426,-9.488 12.262,-25.141 5.586,-46.899 l -1.441,-4.683 z m 239.942,-71.0939 4.92,16.0117 c 2.73,8.8945 0.45,15.1758 -6.76,18.7344 -7.25,3.6171 -22.53,5.3984 -45.95,5.3984 h -43.76 c -25.497,0 -42.556,-2.0742 -51.224,-6.168 -8.668,-4.0937 -14.879,-12.1562 -18.535,-24.0742 -4.262,-13.8711 -3.567,-23.0039 2.043,-27.332 5.609,-4.3281 21.594,-6.5196 48.039,-6.5196 h 43.757 c 23.78,0 40.27,1.7774 49.47,5.2735 9.27,3.5586 15.28,9.7851 18,18.6758 z M 1081.99,190.82 c 28.28,0 47.38,-5.394 57.33,-16.246 9.89,-10.851 11.33,-27.804 4.21,-50.992 L 1107.27,5.47656 h -27.81 l 7.41,24.12894 c -7.69,-9.6016 -16.9,-16.4219 -27.62,-20.45316 -10.75,-4.08984 -25.77,-6.10937 -44.98,-6.10937 h -48.622 c -31.246,0 -51.898,4.38672 -61.812,13.22263 -9.938,8.7774 -11.488,24.1914 -4.738,46.1875 6.355,20.6953 17.132,35.3399 32.293,43.7579 15.168,8.48 38.222,12.687 69.109,12.687 h 51.23 c 15.3,0 27.46,-1.718 36.47,-5.214 9,-3.5 15.51,-8.954 19.43,-16.4848 l 7.67,25.0198 c 4.76,15.476 3.91,26.265 -2.51,32.195 -6.45,5.992 -21.08,8.957 -43.91,8.957 h -43.4 c -22.35,0 -37.152,-1.66 -44.472,-5.039 -7.266,-3.383 -12.426,-9.961 -15.449,-19.809 l -1.657,-5.394 h -30.593 l 1.546,5.043 c 5.7,18.558 15.977,31.957 30.778,40.195 14.828,8.305 36.077,12.453 63.767,12.453 z M 1161.58,5.47656 1217.15,186.492 h 28.17 l -8.27,-26.918 c 9.38,11.446 20.28,19.504 32.57,24.192 12.34,4.683 30.03,7.054 53.1,7.054 30.89,0 51.23,-4.621 60.92,-13.816 9.69,-9.188 11.11,-24.844 4.3,-47.016 l -7.41,-24.133 h -26.92 l 5.23,17.016 c 5.02,16.363 4.09,27.215 -2.72,32.672 -6.87,5.453 -23.16,8.18 -48.83,8.18 -23.66,0 -41.89,-3.555 -54.79,-10.61 -12.9,-7.058 -21.73,-18.441 -26.57,-34.215 L 1191.11,5.47656 Z m 397.14,0 55.57,181.01544 h 28.16 l -8.26,-26.918 c 9.38,11.446 20.28,19.504 32.56,24.192 12.35,4.683 30.04,7.054 53.11,7.054 30.89,0 51.23,-4.621 60.91,-13.816 9.69,-9.188 11.11,-24.844 4.31,-47.016 l -7.41,-24.133 h -26.92 l 5.22,17.016 c 5.03,16.363 4.09,27.215 -2.71,32.672 -6.87,5.453 -23.16,8.18 -48.84,8.18 -23.65,0 -41.88,-3.555 -54.78,-10.61 -12.9,-7.058 -21.73,-18.441 -26.57,-34.215 L 1588.25,5.47656 Z M 1975.76,190.82 c 34.39,0 56.39,-6.343 66,-19.09 9.54,-12.75 9.44,-35.101 -0.37,-67.058 -1.16,-3.797 -2.06,-6.7032 -2.72,-8.6603 -0.65,-1.9531 -1.34,-3.7929 -1.95,-5.3945 l -199.99,-0.1758 -3.03,-9.9023 c -5.94,-19.3282 -5.41,-32.8477 1.62,-40.4961 7.01,-7.6524 22.21,-11.4414 45.45,-11.4414 h 47.62 c 20.27,0 36,2.5468 47.21,7.5859 11.21,5.0391 18.46,12.8086 21.7,23.3594 l 0.58,1.8984 h 30.24 l -1.44,-4.6836 c -5.4,-17.6094 -16.55,-30.9531 -33.41,-40.082 C 1976.43,7.60938 1954.4,3.04297 1927.3,3.04297 h -54.66 c -32.91,0 -54.58,6.10937 -65.01,18.26173 -10.44,12.1562 -11.35,32.375 -2.67,60.6562 l 8.93,29.1131 c 8.84,28.758 22.17,49.211 39.97,61.426 17.8,12.215 43.28,18.32 76.42,18.32 z m -130.93,-73.996 h 169.7 l 1.33,4.328 c 5.02,16.368 4.31,27.571 -2.16,33.739 -6.49,6.105 -22.08,9.191 -46.86,9.191 h -45.3 c -23.07,0 -40.29,-3.559 -51.66,-10.672 -11.38,-7.117 -19.75,-19.332 -25.05,-36.586 z M 2059.38,5.47656 2115.54,188.391 h 28.81 l -10.39,-33.856 c 10.77,12.867 24.16,22.117 40.24,27.746 16.03,5.696 37.25,8.539 63.69,8.539 37.71,0 62.52,-4.922 74.32,-14.761 11.8,-9.844 13.96,-26.977 6.46,-51.407 L 2282.08,5.47656 h -28.82 l 34.19,111.34744 c 3.35,10.91 4.86,18.739 4.57,23.598 -0.34,4.863 -2.25,8.894 -5.79,12.039 -3.97,3.676 -11.48,6.461 -22.55,8.418 -11.04,1.894 -25.16,2.844 -42.29,2.844 -30.71,0 -53.62,-3.735 -68.8,-11.262 -15.18,-7.531 -25.44,-20.102 -30.84,-37.711 L 2088.2,5.47656 Z M 2435,188.391 h 120.36 l -7.57,-24.668 h -120.72 l -29.49,-96.0511 c -4.58,-14.9414 -4.47,-25.1992 0.3,-30.711 4.81,-5.5742 18.78,-8.3593 41.9,-8.3593 18.79,0 32.02,2.3086 39.84,6.9336 7.76,4.625 14.04,14.6445 18.77,30.0625 l 7.19,23.4179 h 25.21 l -7.2,-23.4179 C 2516.47,42.4141 2505.7,26.2266 2491.22,16.918 2476.7,7.66797 2454.7,3.04297 2425.18,3.04297 c -15.42,0 -27.55,1.42187 -36.45,4.32812 -8.94,2.90621 -15.6,7.47271 -20.02,13.75781 -3.32,4.625 -5.03,10.0781 -5.04,16.4219 -0.03,6.2851 2.24,16.957 6.87,32.0195 l 28.9,94.1527 h -39.25 l 7.57,24.668 h 39.26 l 12.84,41.859 h 27.99 z m 310.67,-134.4769 4.92,16.0117 c 2.73,8.8945 0.45,15.1758 -6.76,18.7344 -7.25,3.6171 -22.54,5.3984 -45.95,5.3984 h -43.76 c -25.5,0 -42.56,-2.0742 -51.23,-6.168 -8.66,-4.0937 -14.87,-12.1562 -18.53,-24.0742 -4.26,-13.8711 -3.57,-23.0039 2.04,-27.332 5.61,-4.3281 21.6,-6.5196 48.04,-6.5196 h 43.76 c 23.77,0 40.27,1.7774 49.46,5.2735 9.28,3.5586 15.28,9.7851 18.01,18.6758 z M 2735.05,190.82 c 28.28,0 47.38,-5.394 57.33,-16.246 9.89,-10.851 11.33,-27.804 4.21,-50.992 L 2760.33,5.47656 h -27.81 l 7.41,24.12894 c -7.69,-9.6016 -16.9,-16.4219 -27.63,-20.45316 -10.74,-4.08984 -25.76,-6.10937 -44.98,-6.10937 h -48.61 c -31.25,0 -51.9,4.38672 -61.82,13.22263 -9.93,8.7774 -11.48,24.1914 -4.73,46.1875 6.35,20.6953 17.13,35.3399 32.29,43.7579 15.17,8.48 38.22,12.687 69.11,12.687 h 51.23 c 15.3,0 27.46,-1.718 36.46,-5.214 9.01,-3.5 15.52,-8.954 19.43,-16.4848 l 7.68,25.0198 c 4.75,15.476 3.91,26.265 -2.51,32.195 -6.46,5.992 -21.08,8.957 -43.91,8.957 h -43.4 c -22.35,0 -37.15,-1.66 -44.48,-5.039 -7.26,-3.383 -12.42,-9.961 -15.44,-19.809 l -1.66,-5.394 h -30.59 l 1.54,5.043 c 5.7,18.558 15.98,31.957 30.78,40.195 14.83,8.305 36.08,12.453 63.77,12.453 z m 192.66,73.285 -79.39,-258.62844 h -28.64 l 79.4,258.62844 h 28.63" /><path
         id="path34"
         style="fill:#f47216;fill-opacity:1;fill-rule:evenodd;stroke:none"
         d="m 3873.91,441.934 c 244.26,228.597 -245.84,213.836 -326.2,217.39 247.15,192.637 1001.1,584.176 163.25,679.726 903.35,15.5 765.81,-512.558 162.95,-897.116" /></g></g></svg>